<?xml version="1.0" standalone="no"?>
<!DOCTYPE svg PUBLIC "-//W3C//DTD SVG 20010904//EN"
 "http://www.w3.org/TR/2001/REC-SVG-20010904/DTD/svg10.dtd">
<svg version="1.0" xmlns="http://www.w3.org/2000/svg"
 width="576.000000pt" height="673.000000pt" viewBox="0 0 576.000000 673.000000"
 preserveAspectRatio="xMidYMid meet">

<g transform="translate(0.000000,673.000000) scale(0.100000,-0.100000)"
fill="#0054FF" stroke="none">
<path d="M3970 6636 c-122 -32 -279 -124 -318 -185 -9 -14 -32 -46 -52 -71
-40 -52 -68 -114 -99 -213 -26 -82 -29 -247 -6 -287 8 -14 15 -36 15 -50 0
-14 22 -65 49 -115 122 -223 365 -360 606 -341 166 13 295 72 410 190 134 136
188 266 189 451 0 188 -55 318 -188 450 -167 166 -389 228 -606 171z"/>
<path d="M2045 5548 c-99 -51 -145 -125 -169 -273 -19 -117 -55 -329 -91 -540
-14 -82 -34 -202 -44 -265 -11 -63 -22 -122 -25 -130 -12 -31 -36 -226 -36
-289 0 -85 17 -132 66 -182 59 -61 106 -82 189 -83 79 0 112 14 176 71 59 53
77 98 99 240 11 71 25 149 31 175 6 26 19 100 30 165 21 134 63 379 79 468 6
33 15 64 19 68 5 5 33 3 62 -3 30 -6 104 -20 164 -30 61 -10 128 -23 150 -29
22 -6 62 -13 88 -16 27 -4 50 -12 53 -20 5 -12 -61 -189 -141 -380 -44 -105
-114 -279 -132 -330 -7 -22 -31 -83 -52 -135 -79 -195 -140 -348 -171 -430
-37 -97 -35 -92 -90 -222 -22 -53 -40 -104 -40 -112 0 -8 -4 -17 -10 -21 -5
-3 -14 -20 -19 -38 -5 -18 -30 -81 -56 -142 -25 -60 -50 -121 -55 -135 -4 -14
-38 -88 -75 -165 -106 -224 -216 -456 -240 -510 -12 -27 -44 -95 -71 -150
l-49 -100 -44 2 c-25 1 -57 7 -71 13 -25 10 -83 24 -295 71 -49 11 -102 24
-116 30 -14 5 -63 18 -110 29 -166 36 -313 72 -489 117 -155 41 -265 17 -352
-76 -50 -52 -88 -146 -88 -215 0 -72 38 -167 88 -219 62 -65 104 -81 361 -137
46 -11 91 -22 100 -26 9 -4 61 -17 116 -30 55 -12 136 -31 180 -42 44 -11 112
-28 150 -37 39 -9 95 -23 125 -30 30 -8 123 -31 205 -50 83 -20 177 -43 210
-51 200 -53 309 -58 391 -20 112 52 121 66 298 446 38 80 79 168 92 195 13 28
50 107 83 178 l60 127 35 0 c34 0 59 -12 747 -364 124 -63 231 -121 237 -129
9 -10 -4 -48 -58 -166 -39 -84 -70 -157 -70 -163 0 -5 -6 -22 -14 -36 -19 -35
-198 -441 -288 -652 -22 -52 -48 -113 -58 -135 -44 -94 -62 -156 -57 -187 22
-131 55 -206 116 -261 70 -63 95 -72 201 -72 81 0 102 4 139 24 52 27 137 111
146 143 4 13 38 95 77 183 38 88 76 174 83 190 7 17 49 111 93 210 43 99 114
261 156 360 43 99 86 198 96 220 144 311 200 460 200 530 0 81 -48 192 -107
247 -15 14 -116 71 -223 126 -332 169 -494 252 -510 261 -8 5 -26 14 -40 21
-14 6 -65 33 -115 59 -87 46 -90 49 -88 81 1 18 8 47 16 64 9 17 32 74 52 126
21 52 43 109 50 125 35 80 115 281 115 288 0 5 14 41 31 80 18 40 44 106 60
147 15 41 43 113 62 160 20 47 55 133 78 193 24 59 48 107 54 107 10 0 174
-334 206 -420 18 -49 105 -137 163 -167 42 -22 59 -24 120 -21 68 4 85 12 410
171 186 92 343 167 348 167 5 0 21 9 35 20 14 11 32 20 39 20 8 0 109 47 226
105 236 117 272 146 302 240 24 79 21 124 -17 197 -41 79 -101 123 -181 133
-72 9 -150 -2 -180 -26 -13 -10 -28 -19 -33 -19 -4 0 -71 -31 -148 -69 -77
-38 -176 -86 -220 -107 -44 -20 -156 -74 -249 -120 -94 -46 -177 -84 -186 -84
-12 0 -31 29 -58 88 -22 48 -71 150 -107 227 -37 77 -77 163 -90 191 -13 28
-38 85 -58 125 -19 41 -54 117 -78 169 -99 214 -109 231 -191 301 -142 122
-166 129 -788 239 -233 42 -288 52 -350 65 -36 8 -112 21 -170 30 -58 9 -121
20 -140 25 -135 36 -294 40 -355 8z"/>
</g>
</svg>
