<?xml version="1.0" standalone="no"?>
<!DOCTYPE svg PUBLIC "-//W3C//DTD SVG 20010904//EN"
 "http://www.w3.org/TR/2001/REC-SVG-20010904/DTD/svg10.dtd">
<svg version="1.0" xmlns="http://www.w3.org/2000/svg"
 width="355.000000pt" height="460.000000pt" viewBox="0 0 355.000000 460.000000"
 preserveAspectRatio="xMidYMid meet">

<g transform="translate(0.000000,460.000000) scale(0.100000,-0.100000)"
fill="#FFE400" stroke="none">
<path d="M1635 4338 c-87 -16 -190 -73 -271 -150 -215 -204 -244 -529 -69
-774 45 -63 129 -139 189 -171 16 -8 67 -28 113 -44 201 -70 446 -10 600 147
72 73 104 125 138 222 53 152 43 299 -30 448 -38 78 -57 104 -130 172 -93 88
-161 127 -258 148 -71 15 -208 16 -282 2z"/>
<path d="M3125 3891 c-16 -4 -42 -14 -56 -22 -15 -8 -182 -166 -371 -351 -189
-185 -355 -346 -369 -356 -45 -35 -144 -88 -204 -109 -145 -52 -175 -57 -335
-58 -164 0 -171 1 -294 34 -199 53 -244 87 -651 491 -390 388 -373 375 -508
369 -65 -4 -82 -9 -119 -34 -23 -17 -56 -50 -73 -74 -26 -37 -30 -53 -34 -123
-2 -56 1 -92 13 -121 12 -33 121 -147 506 -532 l490 -490 0 -1084 c0 -750 3
-1095 11 -1120 31 -103 121 -173 230 -179 87 -5 132 10 192 67 87 81 81 38 87
643 l5 538 31 31 c27 27 39 32 87 33 65 1 102 -20 129 -75 16 -31 18 -78 18
-534 0 -322 4 -514 11 -538 12 -43 64 -106 115 -137 21 -14 58 -23 103 -27
123 -10 210 40 263 152 l28 60 0 1085 0 1085 481 480 c356 356 487 493 506
530 66 127 7 297 -121 349 -47 20 -130 28 -171 17z"/>
</g>
</svg>
