<?xml version="1.0" encoding="utf-8"?>
<!-- Generator: Adobe Illustrator 26.5.3, SVG Export Plug-In . SVG Version: 6.00 Build 0)  -->
<svg version="1.1" id="레이어_1" xmlns="http://www.w3.org/2000/svg" xmlns:xlink="http://www.w3.org/1999/xlink" x="0px"
	 y="0px" viewBox="0 0 428 731" style="enable-background:new 0 0 428 731;" xml:space="preserve">
<style type="text/css">
	.st0{fill:#2F9D27;}
</style>
<circle class="st0" cx="225.9" cy="94" r="63.1"/>
<path class="st0" d="M173.4,183.8c-18,23.9-49.2,197.8-46,237.2c0.3,3,0.7,6.7,1.8,10.9c4.7,18.3,16.4,30.3,23.1,36.5
	c22,20.6,47.1,34.3,55.2,38.8c18.8,10.6,44.8,28,72.8,57.3c0.7,1.6,1.9,4.6,3.4,8.3c14.4,37,22.9,84.3,32.7,125.1
	c0.5,1.9,1.5,5.9,4.6,10c8.6,11.5,25.5,13.7,37.7,10.8c0.9-0.2,22.1-5.6,27.2-22.9c1.1-3.6,1.2-6.8,1.1-9.2
	c-11.3-46.8-22.6-93.6-34-140.4c-0.3-1.4-0.8-3.5-1.7-6c-3.3-9.3-8.9-15.2-11.7-18.1c-20.6-21.2-30.5-28.3-30.5-28.3
	c-17.4-12.6-36.3-26.5-58.3-42.7c-1-0.8-13.9-11.8-17.4-21.8c-1.1-3.1-1.5-6.1-1.5-6.1c-0.5-3.2-1.2-4.8,0.2-10.7
	c1-4.3,13.1-86.1,30.9-207.9c-0.4-3.9-2.4-22.3-18-34.2c-8.7-6.7-17.6-8.2-20.7-8.7c-23.3-3.6-40.9,11.6-43.9,14.2
	C177.1,179.2,174.8,182,173.4,183.8z"/>
<path class="st0" d="M125.8,442.5c5.3,9.2,13.5,21.2,25.8,33.2c12.8,12.5,25.6,20.6,35.1,25.7c-23,79.9-39.8,138.1-44.4,154.6
	c-2.6,9.2-5.4,18.4-8.6,27.4c-2,5.8-4.1,11.4-6.3,16.8c-1.2,2.8-3.7,7.6-8.6,11.5c-10.8,8.6-24.3,5.7-27,5.1
	c-10.6-2.3-17.1-9.1-19.3-11.4C53,685.3,62,650.5,62.9,647.3c5.5-20.1,10.7-38.3,16-56.4c13.9-47.4,13-45.9,37.8-121.2
	C120.5,458.2,123.6,448.8,125.8,442.5z"/>
<path class="st0" d="M271,221.2c-3.4,24.3-6.7,48.6-10.1,72.8c31.3,22.2,62.6,44.4,93.9,66.5c12,7.5,26.7,7.7,36.1,0.8
	c12.1-8.8,14-28.1,1.8-42.6C352.1,286.2,311.5,253.7,271,221.2z"/>
<path class="st0" d="M138,443.4"/>
<path class="st0" d="M206.5,162.5c-6.6,1.8-15.5,4.4-25.9,7.9c-11.6,3.9-25.7,11-44.3,17.7c-11.1,4-27.9,11.8-42.8,27.4
	c-6.1,6.3-10.1,12.7-18,25.1c-14.5,23-21.9,41.7-36.9,78.9c-3.3,8.3-7.5,19.3-2.9,29.5c3,6.7,8.7,10.5,10.6,11.7
	c5.5,3.4,13,5.6,19.2,4.2c10.8-2.4,16.1-15.3,21.4-27.9c26.8-64,34.6-76.9,47.3-87.3c7-5.7,13-8.6,21.1-12.6
	c25.8-12.6,49.9-15.1,65-15.4C215.7,202,211.1,182.3,206.5,162.5z"/>
</svg>
