<?xml version="1.0" encoding="utf-8"?>
<!-- Generator: Adobe Illustrator 26.5.3, SVG Export Plug-In . SVG Version: 6.00 Build 0)  -->
<svg version="1.1" id="레이어_1" xmlns="http://www.w3.org/2000/svg" xmlns:xlink="http://www.w3.org/1999/xlink" x="0px"
	 y="0px" viewBox="0 0 546 686" style="enable-background:new 0 0 546 686;" xml:space="preserve">
<style type="text/css">
	.st0{fill:#E0B94F;}
</style>
<g transform="translate(0.000000,686.000000) scale(0.100000,-0.100000)">
	<g transform="translate(0.000000,686.000000) scale(0.100000,-0.100000)">
		<path class="st0" d="M19178-45100c-301.7,119.8-553.8,218.5-864.7,369.8c-375.6,182.7-751.6,397.1-1170.1,670.3
			c-1944.5,1269.2-3419.8,2610.2-4280.6,3421.5c-2224,2096.1-3336,3144.1-4491.4,4920.5c-561.6,863.3-1134.6,1744.3-1622.8,3057.6
			c-576.3,1550.2-2300,8880-2300,9330c0,723.5,110.5,1294.8,368.1,1788c105.8,202.7,486.1,945.9,1281.9,1342
			c1307.7,650.9,2984.5-6.6,3840.2-964.3c668.1-747.7,795.6-1633.5,844.1-1944.4c254.6-1631.8,934.4-4092.8,2754.3-7857.4
			c254-255.6,1338.4-1331.1,1609.7-1140.7c49.6,34.8,128.8,151.7,163.6,285c40.3,154.4,7.2,284.6-1.8,331.8
			c-40,210-110,690-170,1080c-140,1060-1230,7920-1260,8430c-50,1000,50,1370,650,2600c260,530,280,620,210,1220
			c-59,459.5-124.7,862.2-188.8,1208.3c-96.2,519.4-101.6,589.5-311.2,1471.7c-164.8,693.5-394.4,1695.7-728.1,3229.6
			c-577.7,1427.7-1115.5,2550.2-1481.9,3280.4c-638.5,1272.8-3465.5,6339.1-4290,8030c-590,1210-590,1210-590,2120
			c0,1490,570,2560,1750,3310c530,350,980,450,1960,450c810,0,1020-40,1450-250c1444.3-705.3,2300-2700,2300-2700
			c1517.8-3455.1,5643.3-9788.3,6340-12790c108.7-468.2,240-1060,240-1060c208.9-941.3,370.6-1720.4,480-2260
			c814.3,539.3,1730.4,1240.2,2654.3,2143.4c526.4,514.6,982.4,1023.6,1375.7,1506.6l660,1380c1150,2380,3010,6170,3920,7980
			c1810,3640,1990,3950,2520,4310c900,610,1300,740,2220,740c2200,0,3660-1420,3720-3600c20-900-130-1390-930-2970
			c-310-620-2370-4760-3320-6700c-700-1420-3380-6120-5740-8440c-1750-1730-3360-3290-3590-3480l-420-340l50-960
			c20-530,100-1300,160-1710c60-410,130-980,160-1250c30-280,370-2370,430-2700c71.8-394.9,108.5-646.7,170-980
			c205.8-1114.4,310.9-1672.1,419.8-1696.4c385.5-86.3,1089.4,2072.2,2856.3,5015.2c447.9,746,1009.9,1615.3,2013.9,1911.3
			c570.4,168.2,1065.4,82.9,1430,10c1784.2-356.9,3386.4-980.1,4985.1-1720.5c310-143.6,877.1-411.2,1684.9-589.5
			c549.2-121.2,1015.2-158.2,1330-170c82.4,183,207.5,467.4,350,820c189.9,469.8,9670,25660,10010,26030
			c132.5,144.1,286.8,245.9,286.8,245.9c409.1,246.6,962.4,218.3,1385,24.7c85.4-39.1,704.5-334.3,856.4-969.9
			c34.2-142.9,36-266.6,31.8-350.7c-5920.6-16452.8-9345-25757.1-9790-26530c-42.9-74.6-194.9-324.1-210-670
			c-28.7-658.4,551.5-949.1,900-1680c157.8-331,314.9-850.4,230-1620c-83.8-743-354.1-1233.3-528.5-1493.1
			c-199.8-297.7-421.7-513.1-631.5-716.9c-223-216.6-524.8-509.7-890-720c-254.3-146.4-852.5-433.1-1790-360
			c-1464.2,288.8-2581.6,664.9-3340,960c-806.6,313.8-1632.1,576.9-2450,860c-633.5,219.3-1213.9,584-1697.4,325.7
			c-187.1-100-278-243.4-467.1-551.1c-590.8-961.4-886.2-1442.1-954.1-1590.2c-281.3-612.9-1170.6-2157.6-3744.6-6135
			c0,0-857.7-1424.8-2036.7-2859.3c-232.7-283.2-606.1-721.9-1194.2-1170.8c-488.7-373-945.6-615.4-1278.5-768.8
			c-368.2-131.1-853.8-260.8-1432.7-306.4c-284.8-22.5-875.5-64.4-1597.7,105.5C20122.5-45475,19807.7-45350,19178-45100z"/>
	</g>
</g>
<circle class="st0" cx="222.1" cy="92.6" r="61.4"/>
</svg>
