<?xml version="1.0" standalone="no"?>
<!DOCTYPE svg PUBLIC "-//W3C//DTD SVG 20010904//EN"
 "http://www.w3.org/TR/2001/REC-SVG-20010904/DTD/svg10.dtd">
<svg version="1.0" xmlns="http://www.w3.org/2000/svg"
 width="327.000000pt" height="588.000000pt" viewBox="0 0 327.000000 588.000000"
 preserveAspectRatio="xMidYMid meet">

<g transform="translate(0.000000,588.000000) scale(0.100000,-0.100000)"
fill="#00D8FF" stroke="none">
<!--
<path d="M1560 5691 c-70 -13 -185 -57 -232 -89 -24 -16 -77 -65 -119 -109
-60 -63 -82 -95 -109 -159 -32 -74 -35 -87 -38 -214 -3 -112 0 -145 16 -195
59 -189 225 -353 407 -401 65 -18 265 -18 331 0 153 41 321 183 372 316 50
127 51 135 51 250 1 132 -8 180 -50 266 -33 70 -145 197 -217 245 -104 70
-292 111 -412 90z"/>
-->
<path d="M1560 5691 c-70 -13 -185 -57 -232 -89 -24 -16 -77 -65 -119 -109
-60 -63 -82 -95 -109 -159 -32 -74 -35 -87 -38 -214 -3 -112 0 -145 16 -195
59 -189 225 -353 407 -401 65 -18 265 -18 331 0 153 41 321 183 372 316 50
127 51 135 51 250 1 132 -8 180 -50 266 -33 70 -145 197 -217 245 -104 70
-292 111 -412 90z M994 4411 c-31 -19 -104 -101 -104 -116 0 -5 -15 -40 -34 -79 -19
-39 -42 -89 -52 -111 -9 -22 -44 -96 -77 -165 -67 -143 -279 -595 -307 -655
-10 -22 -34 -74 -53 -115 -99 -213 -145 -318 -151 -346 -8 -37 16 -115 50
-160 14 -17 52 -47 87 -65 78 -42 158 -46 224 -11 55 29 79 62 151 217 33 72
84 179 112 240 29 60 56 119 61 132 5 13 13 23 19 23 6 0 11 -453 12 -1372 l3
-1373 32 -67 c35 -75 100 -145 165 -179 35 -19 59 -23 133 -24 84 0 94 2 154
34 72 40 108 80 154 172 l32 64 3 953 2 952 40 0 40 0 2 -952 3 -953 30 -60
c44 -90 86 -137 157 -176 58 -31 70 -34 148 -34 66 0 96 5 132 22 66 30 134
102 171 181 l32 67 3 1390 2 1390 20 -33 c11 -18 20 -37 20 -42 0 -6 21 -54
46 -107 25 -54 75 -161 111 -238 36 -77 76 -155 89 -173 103 -136 339 -84 414
92 30 70 26 83 -75 301 -15 33 -44 94 -63 135 -18 41 -55 120 -81 175 -26 55
-87 186 -136 290 -49 105 -114 244 -145 310 -31 66 -65 138 -74 160 -10 22
-33 72 -52 111 -19 39 -34 75 -34 80 0 19 -85 107 -117 120 -26 11 -150 14
-650 14 -588 0 -620 -1 -649 -19z"/>
</g>
</svg>
