<?xml version="1.0" encoding="utf-8"?>
<!-- Generator: Adobe Illustrator 26.5.3, SVG Export Plug-In . SVG Version: 6.00 Build 0)  -->
<svg version="1.1" id="레이어_1" xmlns:serif="http://www.serif.com/"
	 xmlns="http://www.w3.org/2000/svg" xmlns:xlink="http://www.w3.org/1999/xlink" x="0px" y="0px" viewBox="0 0 100 100"
	 style="enable-background:new 0 0 100 100;" xml:space="preserve">
<style type="text/css">
	.st0{fill:#FFFFFF;}
</style>
<g transform="matrix(1,0,0,1,-516,-142)">
	<g transform="matrix(3.51286,-2.24073,-2.24073,-3.51286,1679.68,3738.08)">
		<path class="st0" d="M227.3,864.4c1.3,0,2.3,0.3,2.3,0.6c0,0.3-1,0.6-2.3,0.6s-2.3-0.3-2.3-0.6C225,864.6,226,864.4,227.3,864.4z"
			/>
	</g>
	<g transform="matrix(4.16667,0,0,4.16667,0,-1542.78)">
		<path class="st0" d="M133.2,416.4c-0.4,0.6-1.1,1.3-2.1,1.9c-1.6,1.1-3.3,1.5-3.7,0.9l-0.8-1.2c0.4,0.6,2.1,0.2,3.7-0.8
			c0.9-0.6,1.7-1.3,2.1-1.9L133.2,416.4z"/>
	</g>
	<g transform="matrix(4.16667,0,0,4.16667,0,-2471.89)">
		<path class="st0" d="M126,638.7c0.4-0.6,1.1-1.3,2-1.9c1.6-1.1,3.3-1.5,3.7-0.9l0.8,1.2c-0.4-0.6-2.1-0.2-3.7,0.9
			c-0.9,0.6-1.6,1.3-2,1.9L126,638.7z"/>
	</g>
	<g transform="matrix(4.16667,0,0,4.16667,0,-582.63)">
		<path class="st0" d="M141.8,184.4v0.8h-0.4v0.3h0.4v0.8h0.6v-1.9H141.8z"/>
	</g>
	<g transform="matrix(4.16667,0,0,4.16667,0,-394.411)">
		<path class="st0" d="M142.4,142.1v-0.3h-2.1v-0.7h-0.6v1.1h0.6l0,0L142.4,142.1L142.4,142.1z"/>
	</g>
	<g transform="matrix(4.16667,0,0,4.16667,0,-602.7)">
		<path class="st0" d="M140.7,189.8h0.8v-0.3h-0.8v-0.2h-0.5v0.2h-0.8v0.3h0.7c0,0.1-0.2,0.6-0.8,0.7v0.3c0,0,0.8,0,1.2-0.5
			c0.3,0.5,1.2,0.5,1.2,0.5v-0.3C140.9,190.4,140.8,189.9,140.7,189.8z"/>
	</g>
	<g transform="matrix(4.16667,0,0,4.16667,0,-598.761)">
		<path class="st0" d="M137.9,188.4v0.3h-0.5v0.3h0.5v0.3h-0.5v0.3h0.5v0.4h0.6v-1.5H137.9z"/>
	</g>
	<g transform="matrix(4.16667,0,0,4.16667,0,-390.562)">
		<path class="st0" d="M137.1,140c-0.8,0-1.4,0.3-1.4,0.7c0,0.4,0.6,0.7,1.4,0.7c0.8,0,1.4-0.3,1.4-0.7
			C138.5,140.2,137.8,140,137.1,140 M137.1,141c-0.4,0-0.7-0.1-0.7-0.4c0-0.2,0.3-0.4,0.7-0.4c0.4,0,0.7,0.1,0.7,0.4
			C137.7,140.8,137.5,141,137.1,141z"/>
	</g>
	<g transform="matrix(4.16667,0,0,4.16667,0,-607.609)">
		<path class="st0" d="M137.3,191.2c0-0.4-0.4-0.7-0.9-0.7c-0.5,0-0.9,0.3-0.9,0.7s0.4,0.7,0.9,0.7
			C136.9,191.9,137.3,191.6,137.3,191.2 M136,191.2c0-0.3,0.2-0.4,0.4-0.4c0.2,0,0.4,0.2,0.4,0.4c0,0.3-0.2,0.4-0.4,0.4
			C136.1,191.6,136,191.4,136,191.2z"/>
	</g>
	<g transform="matrix(4.16667,0,0,4.16667,0,-517.578)">
		<path class="st0" d="M143.9,168.9h0.6v0.9c0,0,0.1,0.9,1.1,0.9v-2h0.6v2.8h-0.6v-0.5c0,0-0.9,0.2-1.5-0.6c0,0-0.3,0.6-1.1,0.6
			v-0.3c0,0,0.6,0,0.8-0.9L143.9,168.9z"/>
	</g>
</g>
</svg>
