<?xml version="1.0" encoding="utf-8"?>
<!-- Generator: Adobe Illustrator 26.5.3, SVG Export Plug-In . SVG Version: 6.00 Build 0)  -->
<svg version="1.1" id="레이어_1" xmlns:serif="http://www.serif.com/"
	 xmlns="http://www.w3.org/2000/svg" xmlns:xlink="http://www.w3.org/1999/xlink" x="0px" y="0px" viewBox="0 0 500 500"
	 style="enable-background:new 0 0 500 500;" xml:space="preserve">
<g transform="matrix(1,0,0,1,-516,-142)">
	<g transform="matrix(3.51286,-2.24073,-2.24073,-3.51286,1679.68,3738.08)">
		<path d="M217.9,809.5c7.7,0,14,1.6,14,3.6c0,1.9-6.3,3.5-14,3.5c-7.7,0-14-1.6-14-3.6C203.8,811.1,210.1,809.5,217.9,809.5z"/>
	</g>
	<g transform="matrix(4.16667,0,0,4.16667,0,-1542.78)">
		<path d="M171.3,467.1c-2.4,3.6-6.9,7.9-12.6,11.4c-10.2,6.4-20.2,8.9-22.7,5.2l-4.8-7.3c2.5,3.7,12.7,1.3,22.8-5.1
			c5.7-3.6,10.3-7.8,12.7-11.5L171.3,467.1z"/>
	</g>
	<g transform="matrix(4.16667,0,0,4.16667,0,-2471.89)">
		<path d="M127.5,686c2.3-3.6,6.8-7.9,12.5-11.6c10.1-6.5,20.1-9.1,22.7-5.5l4.8,7.2c-2.6-3.7-12.7-1.2-22.8,5.3
			c-5.7,3.7-10.2,7.9-12.6,11.6L127.5,686z"/>
	</g>
	<g transform="matrix(4.16667,0,0,4.16667,0,-582.63)">
		<path d="M214.1,226.2v4.3h-2.4v1.9h2.4v4.7h3.2v-10.9H214.1z"/>
	</g>
	<g transform="matrix(4.16667,0,0,4.16667,0,-394.411)">
		<path d="M217.4,197l0-1.9l-12.3,0v-4.1h-3.4v6.1h3.4v0H217.4z"/>
	</g>
	<g transform="matrix(4.16667,0,0,4.16667,0,-602.7)">
		<path d="M208.2,234.3h4.4v-1.9H208v-1.3h-3.3v1.3h-4.4v1.9h4.1c-0.1,0.3-1.1,3.3-4.8,4l0,1.9c0,0,4.7-0.1,6.7-3c2,2.9,6.7,3,6.7,3
			l0-2C209.3,237.6,208.3,234.6,208.2,234.3z"/>
	</g>
	<g transform="matrix(4.16667,0,0,4.16667,0,-598.761)">
		<path d="M191.8,230.5v1.5h-2.9v1.9h2.9v1.5h-2.9v1.9h2.9v2.1h3.2v-8.8H191.8z"/>
	</g>
	<g transform="matrix(4.16667,0,0,4.16667,0,-390.562)">
		<path d="M187,189.4c-4.4,0-7.9,1.7-7.9,3.8c0,2.1,3.5,3.8,7.9,3.8c4.4,0,7.9-1.7,7.9-3.8C194.9,191.1,191.4,189.4,187,189.4
			 M187,195.2c-2.2,0-3.9-0.9-3.9-2c0-1.1,1.8-2,3.9-2c2.2,0,3.9,0.9,3.9,2C190.9,194.3,189.2,195.2,187,195.2z"/>
	</g>
	<g transform="matrix(4.16667,0,0,4.16667,0,-607.609)">
		<path d="M188.6,236.7c0-2.2-2.5-3.9-5.5-3.9c-3,0-5.5,1.8-5.5,3.9c0,2.2,2.5,3.9,5.5,3.9C186.1,240.6,188.6,238.8,188.6,236.7
			 M180.8,236.7c0-1.3,1-2.3,2.2-2.3c1.2,0,2.2,1,2.2,2.3c0,1.3-1,2.3-2.2,2.3C181.8,239,180.8,238,180.8,236.7z"/>
	</g>
	<g transform="matrix(4.16667,0,0,4.16667,0,-517.578)">
		<path d="M225.9,211.1h3.7l0,5.6c0,0,0.5,5.6,6.1,5.3v-11.4h3.4v16.2l-3.4,0l0-3c0,0-5.1,0.9-8.1-3.6c0,0-1.9,3.5-6.3,3.7l-0.1-1.9
			c0,0,3.7-0.1,4.7-5.4L225.9,211.1z"/>
	</g>
</g>
</svg>
