<?xml version="1.0" encoding="UTF-8"?>
<svg id="_레이어_1" data-name="레이어 1" xmlns="http://www.w3.org/2000/svg" viewBox="0 0 464.61 171.51">
  <defs>
    <style>
      .cls-1 {
        fill: #074ea2;
      }

      .cls-2 {
        fill: #2e3092;
      }

      .cls-3 {
        fill: #ed1941;
      }

      .cls-4 {
        fill: #00ae4d;
      }
    </style>
  </defs>
  <path class="cls-3" d="M99.64,97.52c27.17-17.44,45.66-37.13,41.3-43.98-4.37-6.84-29.93,1.75-57.11,19.19-27.17,17.44-45.66,37.13-41.3,43.98,4.36,6.84,29.93-1.75,57.11-19.19Z"/>
  <path class="cls-1" d="M182.41,94.91c-9.84,14.97-28.81,32.72-52.53,47.68-42.35,26.69-84.17,37.15-94.71,21.78l-19.9-30.35c10.53,15.37,52.73,5.37,95.08-21.32,23.88-15.06,42.99-32.65,52.77-47.71l19.28,29.91Z"/>
  <path class="cls-4" d="M0,77.89c9.69-15.07,28.48-33.01,52.05-48.21C94.13,2.56,135.85-8.31,146.54,6.95l20.2,30.14c-10.69-15.26-52.78-4.84-94.86,22.28-23.73,15.3-42.66,33.08-52.29,48.24L0,77.89Z"/>
  <path class="cls-2" d="M360.68,51.37v18.01h-9.99v7.98h9.99v19.52h13.53V51.37h-13.53Z"/>
  <path class="cls-2" d="M374.54,117.97l-.13-8.04-51.2-.05v-17.27h-14.32v25.39h14.32v-.03h51.33Z"/>
  <path class="cls-2" d="M336.04,65.06h18.39v-7.98h-19.26v-5.25h-13.56v5.25h-18.31v7.98h17.11c-.38,1.21-4.66,13.83-20.11,16.8l.09,7.91s19.69-.39,27.81-12.38c8.16,11.99,27.85,12.38,27.85,12.38l.03-8.13c-15.44-2.96-19.67-15.38-20.05-16.58Z"/>
  <path class="cls-2" d="M267.65,53.08v6.07h-11.92v7.98h11.92v6.14h-11.92v7.98h11.92v8.56h13.53V53.08h-13.53Z"/>
  <path class="cls-2" d="M247.75,89.95c-18.16,0-32.89,7.16-32.89,16.01s14.73,16,32.89,16,32.89-7.16,32.89-16-14.72-16.01-32.89-16.01m0,24.34c-8.99,0-16.28-3.73-16.28-8.33s7.29-8.34,16.28-8.34,16.28,3.73,16.28,8.34-7.29,8.33-16.28,8.33Z"/>
  <path class="cls-2" d="M254.23,69.98c0-9.02-10.27-16.34-22.92-16.34s-22.92,7.32-22.92,16.34,10.26,16.33,22.92,16.33,22.92-7.32,22.92-16.33m-32.23,0c0-5.34,4.16-9.67,9.3-9.67s9.3,4.33,9.3,9.67-4.16,9.66-9.3,9.66-9.3-4.33-9.3-9.66Z"/>
  <path class="cls-2" d="M409.94,53.3h15.23v23.27s2.07,23.29,25.32,22.1V51.17h14.13V118.64l-14.13-.06,.05-12.55s-21.38,3.76-33.83-14.85c0,0-7.98,14.61-26.31,15.32l-.23-7.78s15.26-.47,19.72-22.39l.05-23.03Z"/>
</svg>