<?xml version="1.0" encoding="UTF-8"?>
<svg id="b" data-name="레이어 2" xmlns="http://www.w3.org/2000/svg" xmlns:xlink="http://www.w3.org/1999/xlink" viewBox="0 0 149.82 200.36">
  <defs>
    <style>
      .m {
        fill: url(#j);
      }

      .n {
        fill: #f7f9ff;
      }

      .o {
        fill: #ffbc3f;
      }

      .p {
        fill: #33e7d2;
      }

      .q {
        fill: url(#h);
      }

      .r {
        fill: url(#i);
      }

      .s {
        fill: url(#l);
      }

      .t {
        fill: #27145a;
      }

      .u {
        fill: #4e90f9;
      }

      .v {
        fill: #3c2da1;
      }

      .w {
        fill: #ff70e9;
      }

      .x {
        fill: url(#f);
      }

      .y {
        fill: url(#g);
      }

      .z {
        fill: #0bc0cf;
      }

      .aa {
        fill: #d0dbf8;
      }

      .ab {
        fill: #5a43db;
      }

      .ac {
        fill: #a2b7eb;
      }

      .ad {
        fill: url(#e);
      }

      .ae {
        fill: #a2b7e8;
      }

      .af {
        fill: url(#d);
      }

      .ag {
        fill: #fcbac0;
      }

      .ah {
        fill: url(#k);
      }
    </style>
    <linearGradient id="d" x1="36.93" y1="144.85" x2="93.61" y2="144.85" gradientUnits="userSpaceOnUse">
      <stop offset="0" stop-color="#eef2fc"/>
      <stop offset=".36" stop-color="#e9eefb"/>
      <stop offset=".76" stop-color="#dbe3f9"/>
      <stop offset="1" stop-color="#d0dbf8"/>
    </linearGradient>
    <linearGradient id="e" x1="9.95" y1="78.75" x2="136.91" y2="78.75" xlink:href="#d"/>
    <linearGradient id="f" x1="0" y1="48.85" x2="49.39" y2="48.85" gradientUnits="userSpaceOnUse">
      <stop offset="0" stop-color="#eef2fc"/>
      <stop offset="1" stop-color="#d0dbf8"/>
    </linearGradient>
    <linearGradient id="g" x1="97.71" y1="69.29" x2="149.67" y2="69.29" gradientUnits="userSpaceOnUse">
      <stop offset="0" stop-color="#f6f8fe"/>
      <stop offset=".51" stop-color="#f2f5fd"/>
      <stop offset="1" stop-color="#e7edfb"/>
    </linearGradient>
    <linearGradient id="h" x1="85.69" y1="99.4" x2="106.3" y2="99.4" gradientUnits="userSpaceOnUse">
      <stop offset="0" stop-color="#eef2fc"/>
      <stop offset=".37" stop-color="#eaeffb"/>
      <stop offset=".72" stop-color="#dee6f9"/>
      <stop offset="1" stop-color="#d0dbf8"/>
    </linearGradient>
    <linearGradient id="i" x1="99.07" y1="121.46" x2="119.69" y2="121.46" xlink:href="#h"/>
    <linearGradient id="j" x1="8.79" y1="135.25" x2="25.22" y2="135.25" gradientUnits="userSpaceOnUse">
      <stop offset="0" stop-color="#d0dbf8"/>
      <stop offset="1" stop-color="#a2b7e8"/>
    </linearGradient>
    <linearGradient id="k" x1="35.8" y1="155.72" x2="52.23" y2="155.72" xlink:href="#j"/>
    <linearGradient id="l" x1="63.13" y1="178.38" x2="79.56" y2="178.38" xlink:href="#j"/>
  </defs>
  <g id="c" data-name="Layer 1">
    <g>
      <g>
        <g>
          <polygon class="ac" points="80.31 119.25 63.77 111.2 63.77 128.41 80.31 137.99 80.31 119.25"/>
          <path class="af" d="M93.58,152.18l-.06-.06c.24-.93-.38-2.01-1.84-2.85l-8.91-5.13c-1.52-.87-2.45-2.49-2.45-4.24v-1.88l-16.54-9.59v.54c0,1.88-2.04,3.06-3.67,2.12l-3.94-2.27c-2.27-1.31-5.67-1.55-7.59-.54l-10.37,5.43c-.88,.46-1.27,1.1-1.25,1.79-.02,0-.02,2.47-.02,2.47,0,.83,.69,1.72,1.94,2.45l35.44,20.44c2.27,1.31,5.67,1.55,7.59,.54l10.37-5.43c1.64-1.01,1.3-2.36,1.3-3.79Z"/>
          <g>
            <g>
              <path class="ad" d="M136.91,148.03V74.25c.03-5.29-2.78-10.18-7.36-12.82L24.88,.99c-2.3-1.33-4.86-1.24-6.94-.21-.75,.4-4.33,2.37-4.1,2.25-2.26,1.21-3.89,3.56-3.89,6.48V83.07c0,5.24,2.79,10.09,7.32,12.73l104.69,60.7c3.98,2.32,7.36,.28,11.46-2.25,2.03-1.26,3.48-3.48,3.49-6.22Z"/>
              <path class="ab" d="M133.61,152.03c1.19-1.09,1.82-2.53,1.83-4.13V74.12c.02-4.68-2.48-9.04-6.53-11.38L24.24,2.3c-.89-.51-1.83-.77-2.82-.77-.5,0-1.02,.07-1.51,.21,.55,.17,1.08,.41,1.59,.7L126.17,62.88c5.46,2.96,7.69,6.84,7.69,13.39v73.78c0,.68-.09,1.35-.25,1.98Z"/>
            </g>
            <polygon class="n" points="19.48 12.67 19.48 84.14 123.69 144.67 123.69 72.95 19.48 12.67"/>
            <g>
              <path class="z" d="M101.42,70.69v-.22c0-.67-.36-1.29-.94-1.63l-28.49-16.39c-.5-.29-1.13,.07-1.13,.65v.22c0,.67,.36,1.29,.94,1.63l28.49,16.39c.5,.29,1.13-.07,1.13-.65Z"/>
              <path class="p" d="M49.95,90.11v-.22c0-.67-.36-1.29-.94-1.63l-25.16-14.79c-.5-.29-1.13,.07-1.13,.65v.22c0,.67,.36,1.29,.94,1.63l25.16,14.79c.5,.29,1.13-.07,1.13-.65Z"/>
              <path class="w" d="M87.53,57.06v-.22c0-.67-.36-1.29-.94-1.63l-14.73-8.57c-.5-.29-1.13,.07-1.13,.65v.22c0,.67,.36,1.29,.94,1.63l14.73,8.56c.5,.29,1.13-.07,1.13-.65Z"/>
              <g>
                <path class="ab" d="M24.21,82.35c-.17,0-.35-.05-.53-.16-.63-.36-1.1-1.24-1.1-2.05,0-.46,.15-.8,.42-.95,.23-.13,.53-.11,.83,.07,.64,.37,1.12,1.27,1.12,2.08,0,.45-.15,.77-.41,.93-.1,.06-.21,.09-.33,.09Zm-.88-2.95c-.06,0-.12,.01-.18,.05-.17,.1-.27,.35-.27,.69,0,.71,.41,1.48,.95,1.79,.22,.13,.42,.15,.56,.07,.17-.1,.26-.34,.26-.67,0-.71-.43-1.51-.98-1.82-.1-.06-.23-.11-.35-.11Z"/>
                <path class="ab" d="M27.96,84.61c-.17,0-.35-.05-.53-.16-.63-.36-1.1-1.24-1.1-2.05,0-.46,.15-.8,.42-.95,.23-.13,.53-.11,.83,.07,.64,.37,1.12,1.27,1.12,2.08,0,.45-.15,.77-.41,.93-.1,.06-.21,.09-.33,.09Zm-.88-2.95c-.06,0-.12,.01-.18,.05-.17,.1-.27,.35-.27,.69,0,.71,.41,1.48,.95,1.79,.22,.13,.42,.16,.56,.07,.17-.1,.26-.34,.26-.67,0-.71-.43-1.51-.98-1.82-.1-.06-.23-.11-.35-.11Z"/>
                <path class="ab" d="M31.7,86.73c-.16,0-.35-.05-.53-.16-.63-.36-1.1-1.24-1.1-2.05,0-.46,.15-.8,.42-.95,.23-.13,.53-.11,.83,.07,.64,.37,1.12,1.27,1.12,2.08,0,.45-.15,.77-.41,.93-.1,.06-.21,.09-.33,.09Zm-.88-2.95c-.06,0-.12,.01-.18,.05-.17,.1-.27,.35-.27,.69,0,.71,.41,1.48,.95,1.79,.22,.13,.42,.16,.56,.07,.17-.1,.26-.34,.26-.67,0-.71-.43-1.51-.98-1.82-.1-.06-.23-.11-.35-.11Z"/>
              </g>
            </g>
          </g>
        </g>
        <g>
          <path class="x" d="M46.8,39.96l-22.93-13.24-12.39-7.15L3.85,15.17l-.74-.43c-1.38-.8-3.11,.2-3.11,1.79V53.24c0,1.85,.99,3.56,2.59,4.48l43.69,25.23c1.38,.8,3.11-.2,3.11-1.79V44.44c0-1.85-.99-3.56-2.59-4.48Z"/>
          <g>
            <path class="ab" d="M11.09,45.46v12.63c-1.58-.91-2.83-1.65-3.62-2.1v-12.62l3.62,2.09Z"/>
            <path class="ab" d="M22.78,59.17v5.68c-1.23-.71-2.44-1.41-3.62-2.1v-5.67l3.62,2.09Z"/>
            <path class="w" d="M28.85,51.71v16.65c-1.18-.68-2.39-1.38-3.62-2.09v-16.65l3.62,2.09Z"/>
            <path class="ab" d="M34.91,60.92v10.94c-1.12-.65-2.34-1.36-3.62-2.1v-10.93l3.62,2.09Z"/>
            <path class="w" d="M41,52.99v22.38c-.64-.38-1.92-1.11-3.63-2.09v-22.38l3.63,2.09Z"/>
            <path class="w" d="M16.72,32.07v29.28c-1.29-.76-2.51-1.46-3.63-2.1V29.98l3.63,2.09Z"/>
          </g>
        </g>
        <path class="y" d="M149.67,64.65v38.63c0,1.68-1.82,2.73-3.27,1.89l-45.96-26.55c-1.68-.97-2.72-2.77-2.72-4.72V35.3c0-1.68,1.82-2.73,3.27-1.89l45.95,26.53c1.69,.97,2.73,2.77,2.73,4.71Z"/>
        <path class="u" d="M112.91,63.47c0,.56-.33,.81-.79,.55-.45-.26-.78-.89-.78-1.45,0-.49,.25-.76,.61-.65v-22.25l.34,.19v22.28c.36,.31,.61,.84,.61,1.33Z"/>
        <path class="w" d="M124.48,69.38c0,.56-.34,.81-.8,.55-.45-.26-.78-.89-.78-1.46,0-.49,.25-.76,.61-.64v-21.48l.34,.19v21.52c.36,.31,.62,.84,.62,1.33Z"/>
        <path class="u" d="M136.05,75.3c0,.56-.34,.81-.8,.55-.45-.26-.78-.89-.78-1.46,0-.49,.25-.76,.62-.64v-20.72l.34,.2v20.74c.36,.32,.61,.85,.61,1.34Z"/>
        <path class="ab" d="M146.76,88.74c-2.38,0-3.82-2.24-5.21-4.41-.96-1.5-1.87-2.91-3.05-3.62-1.66-.99-3.59-.75-5.29,.65-.39,.32-.82,.82-1.28,1.35-1.14,1.32-2.42,2.82-3.9,2.62-1.29-.22-2.02-1.81-2.42-2.67-.58-1.26-1.09-2.75-1.58-4.56-.03-.09-.04-.14-.05-.19l-.07-.19c-1.1-3.75-2.13-7.27-4.44-7.49-1-.17-1.9,.57-2.36,1.03-.42,.33-.83,.97-1.27,1.64-.78,1.2-1.67,2.56-2.83,2.56-1.5-.17-2.2-2.54-2.66-4.11-.08-.29-.16-.54-.23-.74-.08-.22-.15-.45-.23-.68-.59-1.78-1.2-3.62-2.4-5.02,0,0-.02-.03-.04-.04-.99-1.17-2.38-1.65-3.72-1.33-.44,.11-.87,.29-1.29,.48-.77,.34-1.58,.68-2.5,.55-.25-.02-.55-.04-.84-.13-.52-.11-1.01-.29-1.46-.53-.07-.04-.1-.13-.06-.2,.04-.07,.13-.1,.2-.06,.43,.23,.9,.4,1.4,.5,.28,.08,.56,.11,.8,.12,.85,.12,1.58-.2,2.35-.53,.43-.19,.87-.38,1.34-.49,1.45-.35,2.93,.16,3.97,1.38,.03,.02,.04,.04,.05,.06,1.26,1.46,1.88,3.33,2.48,5.14,.08,.23,.15,.46,.23,.68,.07,.2,.14,.46,.23,.75,.41,1.41,1.1,3.76,2.4,3.91,.98,0,1.83-1.29,2.57-2.43,.45-.69,.87-1.34,1.32-1.7,.49-.49,1.48-1.3,2.59-1.1,2.5,.23,3.55,3.85,4.67,7.68l.08,.22c.01,.06,.02,.1,.03,.14,.49,1.83,1,3.3,1.57,4.55,.37,.81,1.06,2.32,2.19,2.5,1.31,.18,2.55-1.26,3.64-2.53,.47-.54,.91-1.05,1.32-1.39,1.8-1.48,3.85-1.73,5.63-.67,1.24,.74,2.21,2.25,3.15,3.71,1.52,2.36,3.1,4.82,5.85,4.18,.63-.17,1.27-.5,1.95-1,.06-.05,.15-.04,.2,.03,.05,.06,.03,.15-.03,.2-.71,.53-1.38,.87-2.06,1.05-.33,.08-.65,.11-.95,.11Z"/>
        <g>
          <path class="q" d="M100.37,105.45l5.93,3.42v-9.55c0-.77-.41-1.49-1.08-1.87l-18.24-10.52c-.58-.33-1.3,.08-1.3,.75v15.32c0,.77,.41,1.49,1.08,1.87l12.3,7.11v-5.78c0-.67,.72-1.08,1.3-.75Z"/>
          <path class="r" d="M118.6,115.98l-12.3-7.1v5.78c0,.67-.72,1.08-1.3,.75l-5.93-3.43v9.54c0,.77,.41,1.49,1.08,1.87l18.24,10.53c.58,.33,1.3-.08,1.3-.75v-15.32c0-.77-.41-1.49-1.08-1.87Z"/>
          <path class="aa" d="M106.3,114.66v-5.78l-5.93-3.42c-.58-.33-1.3,.08-1.3,.75v5.78l5.93,3.43c.58,.33,1.3-.08,1.3-.75Z"/>
        </g>
      </g>
      <g>
        <g>
          <polygon class="u" points="25.22 113.2 41.65 103.71 25.22 94.23 8.79 103.71 25.22 113.2"/>
          <g>
            <polygon class="m" points="8.79 103.71 8.79 157.31 25.22 166.8 25.22 113.2 8.79 103.71"/>
            <polygon class="ab" points="25.22 113.2 25.22 166.8 41.65 157.31 41.65 103.71 25.22 113.2"/>
          </g>
        </g>
        <g>
          <polygon class="u" points="52.23 138.39 68.67 128.9 52.23 119.41 35.8 128.9 52.23 138.39"/>
          <g>
            <polygon class="ah" points="35.8 128.9 35.8 173.06 52.23 182.55 52.23 138.39 35.8 128.9"/>
            <polygon class="ab" points="52.23 138.39 52.23 182.55 68.67 173.06 68.67 128.9 52.23 138.39"/>
          </g>
        </g>
        <g>
          <polygon class="u" points="79.56 167.8 95.99 158.31 79.56 148.82 63.13 158.31 79.56 167.8"/>
          <g>
            <polygon class="s" points="63.13 158.31 63.13 188.97 79.56 198.45 79.56 167.8 63.13 158.31"/>
            <path class="ab" d="M22.59,168.7s-.05,0-.08-.02l-16.43-9.49s-.07-.08-.07-.13v-53.6c0-.05,.03-.1,.07-.13,.05-.03,.1-.03,.15,0l16.43,9.49s.07,.08,.07,.13v53.59c0,.05-.03,.1-.07,.13-.02,.01-.05,.02-.08,.02Zm-16.28-9.72l16.13,9.31v-53.25l-16.13-9.32v53.25Z"/>
            <path class="ab" d="M49.61,184.45s-.05,0-.08-.02l-16.43-9.49s-.07-.08-.07-.13v-44.16c0-.05,.03-.1,.07-.13,.05-.03,.1-.03,.15,0l16.43,9.49s.07,.08,.07,.13v44.16c0,.05-.03,.1-.07,.13-.02,.01-.05,.02-.08,.02Zm-16.28-9.73l16.13,9.32v-43.81l-16.13-9.32v43.81Z"/>
            <path class="ab" d="M76.93,200.36s-.05,0-.08-.02l-16.43-9.49s-.07-.08-.07-.13v-30.66c0-.05,.03-.1,.07-.13,.05-.03,.1-.03,.15,0l16.43,9.49s.07,.08,.07,.13v30.66c0,.05-.03,.1-.07,.13-.02,.01-.05,.02-.08,.02Zm-16.28-9.72l16.13,9.31v-30.31l-16.13-9.32v30.31Z"/>
            <polygon class="ab" points="79.56 167.8 79.56 198.45 95.99 188.97 95.99 158.31 79.56 167.8"/>
          </g>
        </g>
      </g>
      <g>
        <g>
          <path class="t" d="M73.92,98.96c-1.52,0-2.97-.88-3.62-2.37l-16-36.65,6.84-4.21,16.38,37.71c.87,2-.04,4.32-2.04,5.19-.51,.22-1.05,.33-1.57,.33Z"/>
          <g>
            <path class="ab" d="M68.31,43.59c0-13.28-7.64-28.19-18.3-34.34-4.84-2.79-9.08-3.16-12.3-1.55l-7.63,4.32,6.39,.12,5.99,2.1,6.79,5.82,5.41,7.91,4.3,9.32,1.18,11.85-1.62,7.1-3.97,6.41,7.5-4.26c3.91-2.16,6.27-7.41,6.27-14.78Z"/>
            <g>
              <path class="v" d="M33.01,21.94c0-4.25,.82-7.73,2.27-10.32-8.28,2.15-9.32,7.24-9.32,14.63,0,12.85,7.79,27.42,17.74,33.16,2.39,1.38,4.62,2.08,6.62,2.08,1.47,0,4.92,0,6.45-2.6-1.58-.36-3.25-1.02-5.01-2.04-10.88-6.28-18.76-21.64-18.76-34.92Z"/>
              <path class="u" d="M42.7,13.4c-10.88-6.28-18.76-.33-18.76,12.95s7.87,28.64,18.76,34.92c10.66,6.15,18.3-.24,18.3-13.52s-7.64-28.19-18.3-34.34Zm11.54,46.92c-1.13,.76-2.44,1.17-3.91,1.17-2,0-4.22-.7-6.62-2.08-9.95-5.74-17.74-20.31-17.74-33.16,0-7.39,2.49-12.16,6.77-13.21,.59-.14,1.21-.22,1.86-.22,2.13,0,4.52,.75,7.09,2.24,9.85,5.69,17.29,19.7,17.29,32.59,0,6.19-1.75,10.67-4.73,12.68Z"/>
            </g>
          </g>
        </g>
        <g>
          <path class="z" d="M85.61,81.61l-2.72,8.88c-.53-.9-1.33-1.62-2.31-2.04-1.54-.66-4.49-1.61-6.23-2.21l-3.95-9.33,3.14,2.58c1.11,.92,2.42,1.56,3.83,1.88,1.29,.29,2.91,.62,4.21,.74,1.37,.11,2.75-.06,4.03-.51Z"/>
          <g>
            <path class="ag" d="M56.61,70.29c0-1.13,.15-2.51,.92-2.83,1.01-.42,2.52,2.97,2.52,2.97,0,0-.21-.89-.22-1.21,0-.38,.21-.82,.49-.82,.36,0,.5,.31,.51,.79l.67,2.21c.03,.31,.03,.63-.03,.93l-.11,.6c-.12,.67-.07,1.36,.18,2l.82,2.15-2.79,1.21-.87-3.57c-.22-.43-.72-1.1-1.18-1.74-.57-.79-.89-1.72-.9-2.7Z"/>
            <g>
              <path class="v" d="M81.71,152.29s0,1.12,1.37,2.13c.19,.14,.46,.32,.74,.5,.78,.49,1.83,1.4,2.5,2.03,.37,.35,.8,.6,1.36,.63,.84,.04,1.58-.23,1.47-1.49,0-.08-.02-.24-.03-.39,0-.07-.02-.14-.03-.2-.02-.09-.07-2.44-.08-2.49-.1,.42-.69-1.23-1.05-1.25-.55-.03-.47,1.29-.85,.94-.67-.64-1.38-.35-3.22-1.28l-.35-.06c-1.43-.17-1.64,.31-1.79,.74-.02,.07-.03,.14-.04,.19Z"/>
              <path class="v" d="M70.96,158.08s1.29-.13,1.72-.14c1.02-.04,3.24-.67,3.93-.19,.79,.55,2.54,1,2.57-.47l1,.32c.02,.31,.11,2.14,.11,2.25,.03,.54-.08,1.09-.37,1.55-.67,1.05-2.73,.44-3.91,.2l-3.53-.47c-1.28-.26-2.12-1.16-2.36-1.94-.06-.53,.3-1.01,.82-1.1Z"/>
              <path class="t" d="M89.69,107.39l.42,1.53c.1,.38,.17,.76,.21,1.16,.18,1.83,.2,3.68,.06,5.52l-.3,4.02-.91,33.02c.09,1.33-4.34,1.46-4.33-.13l-.82-34.58-1.4,.6-2.31,38.9c0,1.36-4.43,1.49-4.47-.15,0,0-1.31-39.29-1.46-45.45-.11-4.34,7.78-3.18,7.78-3.36l-4.09-3.2,11.61,2.14Z"/>
              <path class="p" d="M89.8,99.17l1.24-12.88c.11-3.22-2.29-4.85-4.69-4.97-.22-.01-.45-.02-.67,0-.56,.04-1.13,.16-1.68,.37-.21,.07-1.77-.85-1.98-.75l-2.72,1.45-.08,.04s-1.69,1.1-2.23,1.22c-1.91,.41-2.74,.28-4.81,.33-1.99,.05-4.62,.04-5.74,.04-.33,0-.63-.2-.76-.5l-3.69-8.51c-.53-.77-3.85,.48-3.58,1.49,0,0,3.1,12.1,4.64,12.86,1.81,.9,7.09,.57,8.95,1.53,1.28,.66,.93,1.19,1.26,2.6l.07,.32c.5,2.14,.7,4.33,.6,6.52-.18,3.77-.41,9.51-.18,10,1.2,2.5,16.26,1.81,16.46-1.93l-.43-7.38c-.03-.61-.02-1.23,.04-1.84Z"/>
              <path class="ag" d="M75.87,77.81c.72,3.57,3.09,3.91,5.32,2.83,2.48-1.2,4.01-4.12,4.16-6.25,.22-3.25-1.82-5.38-4.52-5.56-6.14-.42-5.21,7.75-4.96,8.98Z"/>
              <path class="ag" d="M83.84,76.12l-.25,7.09c-.01,.33-.33,.64-.9,.82-.98,.32-2.34,.19-3.05-.31-.29-.2-.42-.44-.41-.67-.01,0,.24-7.09,.24-7.09l4.38,.15Z"/>
              <path class="t" d="M81.01,73.36c-.78,1.02-1.94,1.55-3.04,1.5-.36-.01-.7-.89-1.15-1.4-.3-.34-.74-.32-.92-.48-.8-.71-.92-3.28,.86-4.3,1.75-1,3.51-1.02,4.73-.79,.18,.03-.96,.58-.82,.7,1.39,1.07,1.55,3.2,.35,4.77Z"/>
              <g>
                <path class="t" d="M81.73,78.69l-.53-2.11c-.14-.56-.42-1.07-.81-1.5-.4-.43-.91-.76-1.47-.94l-2.12-.69c.13,1.79,.89,3.26,2.53,5,.79,.84,1.65,1.35,2.47,1.53v-.34c.02-.32-.01-.64-.09-.95Z"/>
                <path class="t" d="M81.48,67.89c-2.58-.23-4.69,1.89-4.69,5.01,0,.19,.01,.38,.03,.56l2.12,.69c.56,.18,1.07,.51,1.47,.94,.39,.42,.67,.94,.81,1.5l.53,2.11c.08,.31,.11,.63,.1,.95v.34c1.57,.35,3.38-.82,4-3.03,.32-1.16,3.14-8.38-4.35-9.06Z"/>
              </g>
              <path class="ag" d="M77.63,77.06c-.59,.73-.69,1.64-.21,2.02,.48,.38,1.34,.1,1.93-.63,.59-.73,.69-1.64,.21-2.02-.48-.38-1.34-.1-1.93,.63Z"/>
            </g>
          </g>
        </g>
      </g>
      <path class="ae" d="M90.46,30.17l-2.45-2.45,2.45-2.45,2.45,2.45-2.45,2.45Zm-2.02-2.45l2.02,2.02,2.02-2.02-2.02-2.02-2.02,2.02Z"/>
      <path class="ae" d="M110.73,166.74h-5.98l2.99-3.79,2.99,3.79Zm-5.36-.3h4.74l-2.37-3-2.37,3Z"/>
      <path class="o" d="M144.71,120.55c-.96-.23-1.55-1.2-1.32-2.16,.23-.96,1.2-1.55,2.16-1.32,.96,.23,1.55,1.2,1.32,2.16-.23,.96-1.2,1.55-2.16,1.32Z"/>
      <path class="w" d="M5.74,96.11c-.96-.23-1.55-1.2-1.32-2.16,.23-.96,1.2-1.55,2.16-1.32,.96,.23,1.55,1.2,1.32,2.16-.23,.96-1.2,1.55-2.16,1.32Z"/>
    </g>
  </g>
</svg>