<?xml version="1.0" encoding="UTF-8"?>
<svg id="b" data-name="레이어 2" xmlns="http://www.w3.org/2000/svg" viewBox="0 0 54.03 26.4">
  <defs>
    <style>
      .d {
        fill: #fff;
      }
    </style>
  </defs>
  <g id="c" data-name="Layer 1">
    <g>
      <path class="d" d="M8.35,21.8c0,2.54,2.06,4.6,4.6,4.6s4.6-2.06,4.6-4.6-2.06-4.6-4.6-4.6-4.6,2.06-4.6,4.6Zm1.95,0c0-1.46,1.19-2.65,2.65-2.65s2.65,1.19,2.65,2.65-1.19,2.65-2.65,2.65-2.65-1.19-2.65-2.65Z"/>
      <path class="d" d="M27.02,0c-1.08,0-1.95,.87-1.95,1.95V19.85c0,1.08,.87,1.95,1.95,1.95h7.21c.54,0,.97-.44,1.05-.97,.47-3.15,3.19-5.58,6.48-5.58s6,2.42,6.48,5.58c.08,.53,.51,.97,1.05,.97h2.8c1.08,0,1.95-.87,1.95-1.95V1.95C54.03,.87,53.16,0,52.08,0H27.02Zm12.94,1.95h5.51s6.6,6.6,6.6,6.6v5.51S39.96,1.95,39.96,1.95Z"/>
      <path class="d" d="M37.16,21.8c0,2.54,2.06,4.6,4.6,4.6s4.6-2.06,4.6-4.6-2.06-4.6-4.6-4.6-4.6,2.06-4.6,4.6Zm1.95,0c0-1.46,1.19-2.65,2.65-2.65s2.65,1.19,2.65,2.65-1.19,2.65-2.65,2.65-2.65-1.19-2.65-2.65Z"/>
      <path class="d" d="M0,17.5v3.33c0,.54,.44,.97,.97,.97h.59s.59,0,.59,0h3.26c.54,0,.97-.44,1.05-.97,.47-3.15,3.19-5.58,6.48-5.58s6,2.42,6.48,5.58c.08,.53,.45,.97,.91,.97h.84c1.08,0,1.95-.87,1.95-1.95V10.9s0-8.95,0-8.95C23.13,.87,22.25,0,21.18,0H12.82c-1.08,0-2.24,.82-2.61,1.84l-2.58,7.23c-.36,1.01-1.42,2.25-2.37,2.76l-1.97,1.07c-.95,.51-1.71,1.8-1.71,2.88v.75H.97C.44,16.52,0,16.96,0,17.5Zm9.46-7.78l2.58-7.23c.09-.24,.52-.54,.77-.54h8.36v7.77H9.46Z"/>
    </g>
  </g>
</svg>