<?xml version="1.0" encoding="UTF-8"?>
<svg id="_레이어_2" data-name="레이어 2" xmlns="http://www.w3.org/2000/svg" viewBox="0 0 182.41 171.51">
  <defs>
    <style>
      .cls-1 {
        fill: #074ea2;
      }

      .cls-2 {
        fill: #ed1941;
      }

      .cls-3 {
        fill: #00ae4d;
      }
    </style>
  </defs>
  <g id="_레이어_1-2" data-name=" 레이어 1">
    <path class="cls-2" d="M99.64,97.52c27.17-17.44,45.66-37.13,41.3-43.98-4.37-6.84-29.93,1.75-57.11,19.19-27.17,17.44-45.66,37.13-41.3,43.98,4.36,6.84,29.93-1.75,57.11-19.19Z"/>
    <path class="cls-1" d="M182.41,94.91c-9.84,14.97-28.81,32.72-52.53,47.68-42.35,26.69-84.17,37.15-94.71,21.78l-19.9-30.35c10.53,15.37,52.73,5.37,95.08-21.32,23.88-15.06,42.99-32.65,52.77-47.71l19.28,29.91h0Z"/>
    <path class="cls-3" d="M0,77.89c9.69-15.07,28.48-33.01,52.05-48.21C94.13,2.56,135.85-8.31,146.54,6.95l20.2,30.14c-10.69-15.26-52.78-4.84-94.86,22.28-23.73,15.3-42.66,33.08-52.29,48.24L0,77.89Z"/>
  </g>
</svg>